<?xml version="1.0" standalone="no"?>
<!DOCTYPE svg PUBLIC "-//W3C//DTD SVG 20010904//EN"
 "http://www.w3.org/TR/2001/REC-SVG-20010904/DTD/svg10.dtd">
<svg version="1.0" xmlns="http://www.w3.org/2000/svg"
 width="512.000000pt" height="512.000000pt" viewBox="0 0 512.000000 512.000000"
 preserveAspectRatio="xMidYMid meet">

<g transform="translate(0.000000,512.000000) scale(0.100000,-0.100000)"
fill="#000000" stroke="none">
<path d="M1525 4300 c-434 -160 -800 -298 -813 -308 -41 -32 -701 -945 -708
-980 -9 -45 15 -102 52 -127 17 -12 154 -52 322 -95 l292 -75 0 -720 c0 -666
1 -723 18 -755 9 -19 31 -42 47 -51 49 -29 2125 -659 2169 -659 33 0 161 68
800 421 419 232 772 431 784 443 13 12 29 30 35 41 9 14 13 223 17 749 l5 728
260 124 c146 70 270 135 282 149 27 31 38 85 25 122 -14 41 -661 962 -687 979
-12 8 -58 19 -101 24 -44 5 -494 70 -1002 144 -507 75 -942 136 -965 136 -30
-1 -275 -86 -832 -290z m1610 -80 c412 -60 749 -111 751 -112 1 -2 -224 -108
-499 -236 l-502 -234 -775 143 c-426 78 -786 145 -799 148 -17 5 116 58 510
203 294 108 541 197 550 197 9 1 353 -48 764 -109z m1415 -546 c129 -185 236
-341 237 -348 2 -10 -1345 -662 -1352 -654 -8 9 -355 756 -355 764 0 9 1206
573 1225 573 6 0 116 -151 245 -335z m-2780 -94 c481 -88 883 -164 893 -168
14 -6 -24 -69 -249 -407 -147 -220 -267 -401 -268 -402 -2 -2 -1789 458 -1794
462 -2 2 109 156 245 344 227 311 250 340 273 336 14 -3 419 -77 900 -165z
m998 -2746 c-3 -3 -1830 554 -1835 560 -2 1 -2 284 -1 627 l3 625 610 -158
c336 -87 629 -159 653 -160 28 -1 52 5 70 18 15 11 133 178 262 371 l235 350
3 -1115 c1 -613 1 -1116 0 -1118z m360 1881 c49 -105 102 -216 117 -249 37
-75 72 -99 140 -93 39 4 138 47 468 206 229 110 420 201 422 201 3 0 4 -273 3
-607 l-3 -608 -610 -338 c-335 -186 -616 -341 -622 -344 -10 -4 -13 202 -13
1013 0 559 2 1015 4 1013 3 -2 45 -90 94 -194z"/>
</g>
</svg>
